<?xml version="1.0" encoding="UTF-8" standalone="no"?>
<!-- Created with Inkscape (http://www.inkscape.org/) -->

<svg
   version="1.1"
   id="svg1"
   width="714"
   height="318"
   viewBox="0 0 714 318"
   sodipodi:docname="regin_logo.svg"
   inkscape:version="1.4 (86a8ad7, 2024-10-11)"
   xmlns:inkscape="http://www.inkscape.org/namespaces/inkscape"
   xmlns:sodipodi="http://sodipodi.sourceforge.net/DTD/sodipodi-0.dtd"
   xmlns="http://www.w3.org/2000/svg"
   xmlns:svg="http://www.w3.org/2000/svg">
  <defs
     id="defs1" />
  <sodipodi:namedview
     id="namedview1"
     pagecolor="#ffffff"
     bordercolor="#000000"
     borderopacity="0.25"
     inkscape:showpageshadow="2"
     inkscape:pageopacity="0.0"
     inkscape:pagecheckerboard="0"
     inkscape:deskcolor="#d1d1d1"
     inkscape:zoom="1.7588538"
     inkscape:cx="394.00659"
     inkscape:cy="208.37434"
     inkscape:window-width="1920"
     inkscape:window-height="1009"
     inkscape:window-x="-8"
     inkscape:window-y="-8"
     inkscape:window-maximized="1"
     inkscape:current-layer="g1" />
  <g
     inkscape:groupmode="layer"
     inkscape:label="Image"
     id="g1">
    <path
       style="fill:#000000"
       d="m 137.6098,165.03871 c 0,-15.4 0.1125,-28.01325 0.25,-28.02944 0.1375,-0.0162 17.8,-0.28892 39.25,-0.60608 l 39,-0.57666 3.83838,-2.46659 c 10.84281,-6.96771 9.31191,-22.94316 -2.72229,-28.40812 l -4.11609,-1.86919 -31.75,-0.022 -31.75,-0.022 v 5.5 5.5 h 31 31 l 2,2 c 2.40693,2.40692 2.50067,3.84018 0.4433,6.77749 l -1.55671,2.22251 H 175.0531 137.6098 v -16.5 -16.499998 h 38.3185 c 43.84706,0 45.75342,0.2598 53.36075,7.27199 14.85115,13.689308 11.25016,37.640918 -6.89157,45.838658 l -5.28768,2.38935 -33.75,0.31046 -33.75,0.31047 v 16.43953 16.43954 l 5.25,10e-4 5.25,0.001 v -10.75125 -10.75125 l 14,-0.23046 14,-0.23046 10,10.95881 10,10.9588 6.97111,0.0216 6.97112,0.0217 -5.97997,-6.25 c -3.28898,-3.4375 -7.98217,-8.3875 -10.42932,-11 l -4.44935,-4.75 7.9582,0.054 7.95821,0.054 14.84625,15.94603 c 8.16544,8.77031 15.25294,15.94602 15.75,15.94602 0.52269,0 0.90375,-16.2335 0.90375,-38.5 v -38.5 h 44.5 44.5 v -5.5 -5.5 h -44.5 -44.5 v -5.499998 -5.5 h 50.55346 50.55346 l -0.30346,16.531658 -0.30346,16.53166 -44.5,0.21834 -44.5,0.21834 -0.26582,27.75 -0.26582,27.75 39.26582,0.001 39.26582,10e-4 -0.34255,-5.50136 -0.34255,-5.50136 H 304.01725 270.6098 v -16.5 -16.5 h 27 c 14.85,0 27.3375,-0.005 27.75,-0.0115 0.4125,-0.006 0.8847,2.46 1.04933,5.48073 l 0.29933,5.49224 -22.29933,0.26926 -22.29933,0.26927 v 5 5 l 33.5,0.5 33.5,0.5 v 16.5 16.5 l -72.63473,0.2565 -72.63473,0.2565 -10.36527,-11.4504 -10.36527,-11.45039 -5.75,-0.0561 -5.75,-0.0561 v 11.5 11.5 h -17 -17 z m 253.76685,26.92411 c -47.41032,-7.0124 -57.20777,-73.14183 -14.04735,-94.814818 9.86808,-4.95525 11.98563,-5.10929 70.23608,-5.10929 h 54.53538 l 40.75452,40.745418 40.75452,40.74543 v -35.24543 -35.24542 h -5.5 -5.5 v 21.77439 21.7744 l -27.25,-27.0244 -27.25,-27.024388 8,-0.32673 8,-0.32673 13.05773,13.576728 c 15.789,16.41655 14.44227,16.40939 14.44227,0.0767 V 92.038682 h 17 17 v 50.499998 50.5 h -4.24548 -4.24548 L 546.36432,152.29325 505.6098,111.54782 v 34.74543 34.74543 h 5.5 5.5 v -21.71581 -21.71584 l 5.5,5.43168 5.5,5.43168 v 22.28416 22.28416 h -33.5 -33.5 v -27.90745 -27.90745 l 5.50137,-0.34255 5.50136,-0.34255 -10e-4,22.25 -0.001,22.25 h 5.5 5.5 v -39 -39 h -10.5 -10.5 v 5.5 5.5 h 5 5 l -10e-4,5.75 -0.001,5.75 h -38.32346 -38.32346 l -4.05427,2.68401 c -10.67799,7.06908 -10.30981,21.79023 0.70684,28.26192 l 3.4966,2.05407 15.75,0.33785 15.75,0.33786 v 5.49313 5.49312 l -17.75,-0.33541 -17.75,-0.33541 -4.12821,-2.20376 c -20.3581,-10.86778 -20.12657,-39.89476 0.39862,-49.97382 l 5.72959,-2.81356 22.75,-0.3176 22.75,-0.3176 v -5.52325 -5.52325 l -24.25,0.34952 -24.25,0.34952 -6.57366,3.20825 c -30.44174,14.85699 -30.42063,56.08142 0.0364,71.05222 l 5.53727,2.72178 24.75,0.32714 24.75,0.32715 v -16.5558 -16.5558 l -19.75,-0.27114 -19.75,-0.27114 v -5.29668 -5.29667 l 25.5,-0.0119 25.5,-0.0119 v 27.80854 27.80853 l -26.5,0.13605 c -14.575,0.0748 -29.07992,-0.24554 -32.23315,-0.71194 z"
       id="path6" />
  </g>
</svg>
